<mxfile host="app.diagrams.net" modified="2022-01-21T04:11:51.111Z" agent="5.0 (Macintosh; Intel Mac OS X 10_15_7) AppleWebKit/537.36 (KHTML, like Gecko) Chrome/97.0.4692.71 Safari/537.36" etag="FQJIL0pFQV6EMJGIfhia" version="16.4.3" type="github">
  <diagram id="JEB2SCVB3mVN2Yo4Oqr4" name="Page-1">
    <mxGraphModel dx="857" dy="826" grid="1" gridSize="10" guides="1" tooltips="1" connect="1" arrows="1" fold="1" page="1" pageScale="1" pageWidth="827" pageHeight="1169" math="0" shadow="0">
      <root>
        <mxCell id="0" />
        <mxCell id="1" parent="0" />
        <mxCell id="tfYl25-SF_PiAkNNVGWX-130" value="Diagram1 heading" style="shape=umlFrame;whiteSpace=wrap;html=1;width=120;height=30;boundedLbl=1;verticalAlign=middle;align=left;spacingLeft=5;" vertex="1" parent="1">
          <mxGeometry x="10" y="10" width="800" height="1150" as="geometry" />
        </mxCell>
        <mxCell id="tfYl25-SF_PiAkNNVGWX-65" value="&lt;b&gt;&lt;br&gt;Customer&lt;/b&gt;" style="swimlane;fontStyle=0;align=center;verticalAlign=top;childLayout=stackLayout;horizontal=1;startSize=55;horizontalStack=0;resizeParent=1;resizeParentMax=0;resizeLast=0;collapsible=0;marginBottom=0;html=1;" vertex="1" parent="1">
          <mxGeometry x="50" y="160" width="140" height="183" as="geometry" />
        </mxCell>
        <mxCell id="tfYl25-SF_PiAkNNVGWX-66" value="attributes" style="text;html=1;strokeColor=none;fillColor=none;align=center;verticalAlign=middle;spacingLeft=4;spacingRight=4;overflow=hidden;rotatable=0;points=[[0,0.5],[1,0.5]];portConstraint=eastwest;" vertex="1" parent="tfYl25-SF_PiAkNNVGWX-65">
          <mxGeometry y="55" width="140" height="20" as="geometry" />
        </mxCell>
        <mxCell id="tfYl25-SF_PiAkNNVGWX-67" value="-Id: String" style="text;html=1;strokeColor=none;fillColor=none;align=left;verticalAlign=middle;spacingLeft=4;spacingRight=4;overflow=hidden;rotatable=0;points=[[0,0.5],[1,0.5]];portConstraint=eastwest;" vertex="1" parent="tfYl25-SF_PiAkNNVGWX-65">
          <mxGeometry y="75" width="140" height="20" as="geometry" />
        </mxCell>
        <mxCell id="tfYl25-SF_PiAkNNVGWX-73" value="-username: String" style="text;html=1;strokeColor=none;fillColor=none;align=left;verticalAlign=middle;spacingLeft=4;spacingRight=4;overflow=hidden;rotatable=0;points=[[0,0.5],[1,0.5]];portConstraint=eastwest;" vertex="1" parent="tfYl25-SF_PiAkNNVGWX-65">
          <mxGeometry y="95" width="140" height="20" as="geometry" />
        </mxCell>
        <mxCell id="tfYl25-SF_PiAkNNVGWX-74" value="-password: String" style="text;html=1;strokeColor=none;fillColor=none;align=left;verticalAlign=middle;spacingLeft=4;spacingRight=4;overflow=hidden;rotatable=0;points=[[0,0.5],[1,0.5]];portConstraint=eastwest;" vertex="1" parent="tfYl25-SF_PiAkNNVGWX-65">
          <mxGeometry y="115" width="140" height="20" as="geometry" />
        </mxCell>
        <mxCell id="tfYl25-SF_PiAkNNVGWX-70" value="" style="line;strokeWidth=1;fillColor=none;align=left;verticalAlign=middle;spacingTop=-1;spacingLeft=3;spacingRight=3;rotatable=0;labelPosition=right;points=[];portConstraint=eastwest;" vertex="1" parent="tfYl25-SF_PiAkNNVGWX-65">
          <mxGeometry y="135" width="140" height="8" as="geometry" />
        </mxCell>
        <mxCell id="tfYl25-SF_PiAkNNVGWX-71" value="operations" style="text;html=1;strokeColor=none;fillColor=none;align=center;verticalAlign=middle;spacingLeft=4;spacingRight=4;overflow=hidden;rotatable=0;points=[[0,0.5],[1,0.5]];portConstraint=eastwest;" vertex="1" parent="tfYl25-SF_PiAkNNVGWX-65">
          <mxGeometry y="143" width="140" height="20" as="geometry" />
        </mxCell>
        <mxCell id="tfYl25-SF_PiAkNNVGWX-72" value="operation1" style="text;html=1;strokeColor=none;fillColor=none;align=left;verticalAlign=middle;spacingLeft=4;spacingRight=4;overflow=hidden;rotatable=0;points=[[0,0.5],[1,0.5]];portConstraint=eastwest;" vertex="1" parent="tfYl25-SF_PiAkNNVGWX-65">
          <mxGeometry y="163" width="140" height="20" as="geometry" />
        </mxCell>
        <mxCell id="tfYl25-SF_PiAkNNVGWX-148" style="edgeStyle=orthogonalEdgeStyle;rounded=0;orthogonalLoop=1;jettySize=auto;html=1;endArrow=block;endFill=1;" edge="1" parent="1" source="tfYl25-SF_PiAkNNVGWX-76" target="tfYl25-SF_PiAkNNVGWX-135">
          <mxGeometry relative="1" as="geometry" />
        </mxCell>
        <mxCell id="tfYl25-SF_PiAkNNVGWX-76" value="&lt;b&gt;&lt;br&gt;Book&lt;/b&gt;" style="swimlane;fontStyle=0;align=center;verticalAlign=top;childLayout=stackLayout;horizontal=1;startSize=55;horizontalStack=0;resizeParent=1;resizeParentMax=0;resizeLast=0;collapsible=0;marginBottom=0;html=1;" vertex="1" parent="1">
          <mxGeometry x="565" y="419" width="155" height="263" as="geometry" />
        </mxCell>
        <mxCell id="tfYl25-SF_PiAkNNVGWX-77" value="attributes" style="text;html=1;strokeColor=none;fillColor=none;align=center;verticalAlign=middle;spacingLeft=4;spacingRight=4;overflow=hidden;rotatable=0;points=[[0,0.5],[1,0.5]];portConstraint=eastwest;" vertex="1" parent="tfYl25-SF_PiAkNNVGWX-76">
          <mxGeometry y="55" width="155" height="20" as="geometry" />
        </mxCell>
        <mxCell id="tfYl25-SF_PiAkNNVGWX-78" value="-Id: String" style="text;html=1;strokeColor=none;fillColor=none;align=left;verticalAlign=middle;spacingLeft=4;spacingRight=4;overflow=hidden;rotatable=0;points=[[0,0.5],[1,0.5]];portConstraint=eastwest;" vertex="1" parent="tfYl25-SF_PiAkNNVGWX-76">
          <mxGeometry y="75" width="155" height="20" as="geometry" />
        </mxCell>
        <mxCell id="tfYl25-SF_PiAkNNVGWX-79" value="-author_fn: String" style="text;html=1;strokeColor=none;fillColor=none;align=left;verticalAlign=middle;spacingLeft=4;spacingRight=4;overflow=hidden;rotatable=0;points=[[0,0.5],[1,0.5]];portConstraint=eastwest;" vertex="1" parent="tfYl25-SF_PiAkNNVGWX-76">
          <mxGeometry y="95" width="155" height="20" as="geometry" />
        </mxCell>
        <mxCell id="tfYl25-SF_PiAkNNVGWX-80" value="-author_sn: String" style="text;html=1;strokeColor=none;fillColor=none;align=left;verticalAlign=middle;spacingLeft=4;spacingRight=4;overflow=hidden;rotatable=0;points=[[0,0.5],[1,0.5]];portConstraint=eastwest;" vertex="1" parent="tfYl25-SF_PiAkNNVGWX-76">
          <mxGeometry y="115" width="155" height="20" as="geometry" />
        </mxCell>
        <mxCell id="tfYl25-SF_PiAkNNVGWX-85" value="-price: Number" style="text;html=1;strokeColor=none;fillColor=none;align=left;verticalAlign=middle;spacingLeft=4;spacingRight=4;overflow=hidden;rotatable=0;points=[[0,0.5],[1,0.5]];portConstraint=eastwest;" vertex="1" parent="tfYl25-SF_PiAkNNVGWX-76">
          <mxGeometry y="135" width="155" height="20" as="geometry" />
        </mxCell>
        <mxCell id="tfYl25-SF_PiAkNNVGWX-86" value="-isOnSale: Boolean" style="text;html=1;strokeColor=none;fillColor=none;align=left;verticalAlign=middle;spacingLeft=4;spacingRight=4;overflow=hidden;rotatable=0;points=[[0,0.5],[1,0.5]];portConstraint=eastwest;" vertex="1" parent="tfYl25-SF_PiAkNNVGWX-76">
          <mxGeometry y="155" width="155" height="20" as="geometry" />
        </mxCell>
        <mxCell id="tfYl25-SF_PiAkNNVGWX-87" value="-pub_year: Number" style="text;html=1;strokeColor=none;fillColor=none;align=left;verticalAlign=middle;spacingLeft=4;spacingRight=4;overflow=hidden;rotatable=0;points=[[0,0.5],[1,0.5]];portConstraint=eastwest;" vertex="1" parent="tfYl25-SF_PiAkNNVGWX-76">
          <mxGeometry y="175" width="155" height="20" as="geometry" />
        </mxCell>
        <mxCell id="tfYl25-SF_PiAkNNVGWX-88" value="-description: String" style="text;html=1;strokeColor=none;fillColor=none;align=left;verticalAlign=middle;spacingLeft=4;spacingRight=4;overflow=hidden;rotatable=0;points=[[0,0.5],[1,0.5]];portConstraint=eastwest;" vertex="1" parent="tfYl25-SF_PiAkNNVGWX-76">
          <mxGeometry y="195" width="155" height="20" as="geometry" />
        </mxCell>
        <mxCell id="tfYl25-SF_PiAkNNVGWX-134" value="-catalog: Catalog" style="text;html=1;strokeColor=none;fillColor=none;align=left;verticalAlign=middle;spacingLeft=4;spacingRight=4;overflow=hidden;rotatable=0;points=[[0,0.5],[1,0.5]];portConstraint=eastwest;" vertex="1" parent="tfYl25-SF_PiAkNNVGWX-76">
          <mxGeometry y="215" width="155" height="20" as="geometry" />
        </mxCell>
        <mxCell id="tfYl25-SF_PiAkNNVGWX-82" value="" style="line;strokeWidth=1;fillColor=none;align=left;verticalAlign=middle;spacingTop=-1;spacingLeft=3;spacingRight=3;rotatable=0;labelPosition=right;points=[];portConstraint=eastwest;" vertex="1" parent="tfYl25-SF_PiAkNNVGWX-76">
          <mxGeometry y="235" width="155" height="8" as="geometry" />
        </mxCell>
        <mxCell id="tfYl25-SF_PiAkNNVGWX-84" value="+[Getters/Setters methods]" style="text;html=1;strokeColor=none;fillColor=none;align=left;verticalAlign=middle;spacingLeft=4;spacingRight=4;overflow=hidden;rotatable=0;points=[[0,0.5],[1,0.5]];portConstraint=eastwest;" vertex="1" parent="tfYl25-SF_PiAkNNVGWX-76">
          <mxGeometry y="243" width="155" height="20" as="geometry" />
        </mxCell>
        <mxCell id="tfYl25-SF_PiAkNNVGWX-104" value="" style="edgeStyle=orthogonalEdgeStyle;rounded=0;orthogonalLoop=1;jettySize=auto;html=1;" edge="1" parent="1" source="tfYl25-SF_PiAkNNVGWX-89" target="tfYl25-SF_PiAkNNVGWX-76">
          <mxGeometry relative="1" as="geometry">
            <mxPoint x="640" y="580" as="targetPoint" />
          </mxGeometry>
        </mxCell>
        <mxCell id="tfYl25-SF_PiAkNNVGWX-89" value="&lt;b&gt;&lt;br&gt;BookOrder&lt;/b&gt;" style="swimlane;fontStyle=0;align=center;verticalAlign=top;childLayout=stackLayout;horizontal=1;startSize=55;horizontalStack=0;resizeParent=1;resizeParentMax=0;resizeLast=0;collapsible=0;marginBottom=0;html=1;" vertex="1" parent="1">
          <mxGeometry x="550" y="160" width="170" height="163" as="geometry" />
        </mxCell>
        <mxCell id="tfYl25-SF_PiAkNNVGWX-90" value="attributes" style="text;html=1;strokeColor=none;fillColor=none;align=center;verticalAlign=middle;spacingLeft=4;spacingRight=4;overflow=hidden;rotatable=0;points=[[0,0.5],[1,0.5]];portConstraint=eastwest;" vertex="1" parent="tfYl25-SF_PiAkNNVGWX-89">
          <mxGeometry y="55" width="170" height="20" as="geometry" />
        </mxCell>
        <mxCell id="tfYl25-SF_PiAkNNVGWX-91" value="-book: Book" style="text;html=1;strokeColor=none;fillColor=none;align=left;verticalAlign=middle;spacingLeft=4;spacingRight=4;overflow=hidden;rotatable=0;points=[[0,0.5],[1,0.5]];portConstraint=eastwest;" vertex="1" parent="tfYl25-SF_PiAkNNVGWX-89">
          <mxGeometry y="75" width="170" height="20" as="geometry" />
        </mxCell>
        <mxCell id="tfYl25-SF_PiAkNNVGWX-92" value="-quantity: Number" style="text;html=1;strokeColor=none;fillColor=none;align=left;verticalAlign=middle;spacingLeft=4;spacingRight=4;overflow=hidden;rotatable=0;points=[[0,0.5],[1,0.5]];portConstraint=eastwest;" vertex="1" parent="tfYl25-SF_PiAkNNVGWX-89">
          <mxGeometry y="95" width="170" height="20" as="geometry" />
        </mxCell>
        <mxCell id="tfYl25-SF_PiAkNNVGWX-98" value="" style="line;strokeWidth=1;fillColor=none;align=left;verticalAlign=middle;spacingTop=-1;spacingLeft=3;spacingRight=3;rotatable=0;labelPosition=right;points=[];portConstraint=eastwest;" vertex="1" parent="tfYl25-SF_PiAkNNVGWX-89">
          <mxGeometry y="115" width="170" height="8" as="geometry" />
        </mxCell>
        <mxCell id="tfYl25-SF_PiAkNNVGWX-99" value="operations" style="text;html=1;strokeColor=none;fillColor=none;align=center;verticalAlign=middle;spacingLeft=4;spacingRight=4;overflow=hidden;rotatable=0;points=[[0,0.5],[1,0.5]];portConstraint=eastwest;" vertex="1" parent="tfYl25-SF_PiAkNNVGWX-89">
          <mxGeometry y="123" width="170" height="20" as="geometry" />
        </mxCell>
        <mxCell id="tfYl25-SF_PiAkNNVGWX-105" value="+[Getters/Setters methods]" style="text;html=1;strokeColor=none;fillColor=none;align=left;verticalAlign=middle;spacingLeft=4;spacingRight=4;overflow=hidden;rotatable=0;points=[[0,0.5],[1,0.5]];portConstraint=eastwest;" vertex="1" parent="tfYl25-SF_PiAkNNVGWX-89">
          <mxGeometry y="143" width="170" height="20" as="geometry" />
        </mxCell>
        <mxCell id="tfYl25-SF_PiAkNNVGWX-133" style="edgeStyle=orthogonalEdgeStyle;rounded=0;orthogonalLoop=1;jettySize=auto;html=1;entryX=0.75;entryY=0;entryDx=0;entryDy=0;endArrow=block;endFill=1;" edge="1" parent="1" source="tfYl25-SF_PiAkNNVGWX-107" target="tfYl25-SF_PiAkNNVGWX-122">
          <mxGeometry relative="1" as="geometry" />
        </mxCell>
        <mxCell id="tfYl25-SF_PiAkNNVGWX-107" value="&lt;br&gt;&lt;b&gt;ShoppingCart&lt;/b&gt;" style="swimlane;fontStyle=0;align=center;verticalAlign=top;childLayout=stackLayout;horizontal=1;startSize=55;horizontalStack=0;resizeParent=1;resizeParentMax=0;resizeLast=0;collapsible=0;marginBottom=0;html=1;" vertex="1" parent="1">
          <mxGeometry x="280" y="160" width="180" height="183" as="geometry" />
        </mxCell>
        <mxCell id="tfYl25-SF_PiAkNNVGWX-109" value="-id: Int" style="text;html=1;strokeColor=none;fillColor=none;align=left;verticalAlign=middle;spacingLeft=4;spacingRight=4;overflow=hidden;rotatable=0;points=[[0,0.5],[1,0.5]];portConstraint=eastwest;" vertex="1" parent="tfYl25-SF_PiAkNNVGWX-107">
          <mxGeometry y="55" width="180" height="20" as="geometry" />
        </mxCell>
        <mxCell id="tfYl25-SF_PiAkNNVGWX-110" value="-customer: Customer" style="text;html=1;strokeColor=none;fillColor=none;align=left;verticalAlign=middle;spacingLeft=4;spacingRight=4;overflow=hidden;rotatable=0;points=[[0,0.5],[1,0.5]];portConstraint=eastwest;" vertex="1" parent="tfYl25-SF_PiAkNNVGWX-107">
          <mxGeometry y="75" width="180" height="20" as="geometry" />
        </mxCell>
        <mxCell id="tfYl25-SF_PiAkNNVGWX-111" value="-bookOrders: BookOrder[ ]" style="text;html=1;strokeColor=none;fillColor=none;align=left;verticalAlign=middle;spacingLeft=4;spacingRight=4;overflow=hidden;rotatable=0;points=[[0,0.5],[1,0.5]];portConstraint=eastwest;" vertex="1" parent="tfYl25-SF_PiAkNNVGWX-107">
          <mxGeometry y="95" width="180" height="20" as="geometry" />
        </mxCell>
        <mxCell id="tfYl25-SF_PiAkNNVGWX-112" value="" style="line;strokeWidth=1;fillColor=none;align=left;verticalAlign=middle;spacingTop=-1;spacingLeft=3;spacingRight=3;rotatable=0;labelPosition=right;points=[];portConstraint=eastwest;" vertex="1" parent="tfYl25-SF_PiAkNNVGWX-107">
          <mxGeometry y="115" width="180" height="8" as="geometry" />
        </mxCell>
        <mxCell id="tfYl25-SF_PiAkNNVGWX-114" value="+add(string, number): void" style="text;html=1;strokeColor=none;fillColor=none;align=left;verticalAlign=middle;spacingLeft=4;spacingRight=4;overflow=hidden;rotatable=0;points=[[0,0.5],[1,0.5]];portConstraint=eastwest;" vertex="1" parent="tfYl25-SF_PiAkNNVGWX-107">
          <mxGeometry y="123" width="180" height="20" as="geometry" />
        </mxCell>
        <mxCell id="tfYl25-SF_PiAkNNVGWX-118" value="+remove(string, number): void" style="text;html=1;strokeColor=none;fillColor=none;align=left;verticalAlign=middle;spacingLeft=4;spacingRight=4;overflow=hidden;rotatable=0;points=[[0,0.5],[1,0.5]];portConstraint=eastwest;" vertex="1" parent="tfYl25-SF_PiAkNNVGWX-107">
          <mxGeometry y="143" width="180" height="20" as="geometry" />
        </mxCell>
        <mxCell id="tfYl25-SF_PiAkNNVGWX-119" value="+[Getters/Setters methods]" style="text;html=1;strokeColor=none;fillColor=none;align=left;verticalAlign=middle;spacingLeft=4;spacingRight=4;overflow=hidden;rotatable=0;points=[[0,0.5],[1,0.5]];portConstraint=eastwest;" vertex="1" parent="tfYl25-SF_PiAkNNVGWX-107">
          <mxGeometry y="163" width="180" height="20" as="geometry" />
        </mxCell>
        <mxCell id="tfYl25-SF_PiAkNNVGWX-120" style="edgeStyle=orthogonalEdgeStyle;rounded=0;orthogonalLoop=1;jettySize=auto;html=1;exitX=0;exitY=0.5;exitDx=0;exitDy=0;entryX=1;entryY=0.5;entryDx=0;entryDy=0;" edge="1" parent="1" source="tfYl25-SF_PiAkNNVGWX-111" target="tfYl25-SF_PiAkNNVGWX-73">
          <mxGeometry relative="1" as="geometry" />
        </mxCell>
        <mxCell id="tfYl25-SF_PiAkNNVGWX-121" style="edgeStyle=orthogonalEdgeStyle;rounded=0;orthogonalLoop=1;jettySize=auto;html=1;exitX=1;exitY=0.5;exitDx=0;exitDy=0;entryX=0;entryY=0.5;entryDx=0;entryDy=0;endArrow=diamond;endFill=0;" edge="1" parent="1" source="tfYl25-SF_PiAkNNVGWX-111" target="tfYl25-SF_PiAkNNVGWX-92">
          <mxGeometry relative="1" as="geometry" />
        </mxCell>
        <mxCell id="tfYl25-SF_PiAkNNVGWX-132" style="edgeStyle=orthogonalEdgeStyle;rounded=0;orthogonalLoop=1;jettySize=auto;html=1;exitX=0.5;exitY=0;exitDx=0;exitDy=0;endArrow=diamondThin;endFill=0;" edge="1" parent="1" source="tfYl25-SF_PiAkNNVGWX-122" target="tfYl25-SF_PiAkNNVGWX-65">
          <mxGeometry relative="1" as="geometry" />
        </mxCell>
        <mxCell id="tfYl25-SF_PiAkNNVGWX-122" value="&lt;b&gt;&lt;br&gt;BookStore&lt;/b&gt;" style="swimlane;fontStyle=0;align=center;verticalAlign=top;childLayout=stackLayout;horizontal=1;startSize=55;horizontalStack=0;resizeParent=1;resizeParentMax=0;resizeLast=0;collapsible=0;marginBottom=0;html=1;" vertex="1" parent="1">
          <mxGeometry x="140" y="459" width="180" height="183" as="geometry" />
        </mxCell>
        <mxCell id="tfYl25-SF_PiAkNNVGWX-123" value="-books: Book[ ]" style="text;html=1;strokeColor=none;fillColor=none;align=left;verticalAlign=middle;spacingLeft=4;spacingRight=4;overflow=hidden;rotatable=0;points=[[0,0.5],[1,0.5]];portConstraint=eastwest;" vertex="1" parent="tfYl25-SF_PiAkNNVGWX-122">
          <mxGeometry y="55" width="180" height="20" as="geometry" />
        </mxCell>
        <mxCell id="tfYl25-SF_PiAkNNVGWX-124" value="-customer: Customer[ ]" style="text;html=1;strokeColor=none;fillColor=none;align=left;verticalAlign=middle;spacingLeft=4;spacingRight=4;overflow=hidden;rotatable=0;points=[[0,0.5],[1,0.5]];portConstraint=eastwest;" vertex="1" parent="tfYl25-SF_PiAkNNVGWX-122">
          <mxGeometry y="75" width="180" height="20" as="geometry" />
        </mxCell>
        <mxCell id="tfYl25-SF_PiAkNNVGWX-125" value="-bookOrdered: BookOrder[ ]" style="text;html=1;strokeColor=none;fillColor=none;align=left;verticalAlign=middle;spacingLeft=4;spacingRight=4;overflow=hidden;rotatable=0;points=[[0,0.5],[1,0.5]];portConstraint=eastwest;" vertex="1" parent="tfYl25-SF_PiAkNNVGWX-122">
          <mxGeometry y="95" width="180" height="20" as="geometry" />
        </mxCell>
        <mxCell id="tfYl25-SF_PiAkNNVGWX-126" value="" style="line;strokeWidth=1;fillColor=none;align=left;verticalAlign=middle;spacingTop=-1;spacingLeft=3;spacingRight=3;rotatable=0;labelPosition=right;points=[];portConstraint=eastwest;" vertex="1" parent="tfYl25-SF_PiAkNNVGWX-122">
          <mxGeometry y="115" width="180" height="8" as="geometry" />
        </mxCell>
        <mxCell id="tfYl25-SF_PiAkNNVGWX-129" value="+[Getters/Setters methods]" style="text;html=1;strokeColor=none;fillColor=none;align=left;verticalAlign=middle;spacingLeft=4;spacingRight=4;overflow=hidden;rotatable=0;points=[[0,0.5],[1,0.5]];portConstraint=eastwest;" vertex="1" parent="tfYl25-SF_PiAkNNVGWX-122">
          <mxGeometry y="123" width="180" height="20" as="geometry" />
        </mxCell>
        <mxCell id="tfYl25-SF_PiAkNNVGWX-127" value="+listCollection" style="text;html=1;strokeColor=none;fillColor=none;align=left;verticalAlign=middle;spacingLeft=4;spacingRight=4;overflow=hidden;rotatable=0;points=[[0,0.5],[1,0.5]];portConstraint=eastwest;" vertex="1" parent="tfYl25-SF_PiAkNNVGWX-122">
          <mxGeometry y="143" width="180" height="20" as="geometry" />
        </mxCell>
        <mxCell id="tfYl25-SF_PiAkNNVGWX-128" value="+remove(string, number): void" style="text;html=1;strokeColor=none;fillColor=none;align=left;verticalAlign=middle;spacingLeft=4;spacingRight=4;overflow=hidden;rotatable=0;points=[[0,0.5],[1,0.5]];portConstraint=eastwest;" vertex="1" parent="tfYl25-SF_PiAkNNVGWX-122">
          <mxGeometry y="163" width="180" height="20" as="geometry" />
        </mxCell>
        <mxCell id="tfYl25-SF_PiAkNNVGWX-131" style="edgeStyle=orthogonalEdgeStyle;rounded=0;orthogonalLoop=1;jettySize=auto;html=1;exitX=0;exitY=0.5;exitDx=0;exitDy=0;entryX=1;entryY=0.5;entryDx=0;entryDy=0;endArrow=diamond;endFill=1;" edge="1" parent="1" source="tfYl25-SF_PiAkNNVGWX-85" target="tfYl25-SF_PiAkNNVGWX-125">
          <mxGeometry relative="1" as="geometry" />
        </mxCell>
        <mxCell id="tfYl25-SF_PiAkNNVGWX-135" value="&lt;b&gt;&lt;br&gt;Book&lt;/b&gt;" style="swimlane;fontStyle=0;align=center;verticalAlign=top;childLayout=stackLayout;horizontal=1;startSize=55;horizontalStack=0;resizeParent=1;resizeParentMax=0;resizeLast=0;collapsible=0;marginBottom=0;html=1;" vertex="1" parent="1">
          <mxGeometry x="572.5" y="760" width="140" height="283" as="geometry" />
        </mxCell>
        <mxCell id="tfYl25-SF_PiAkNNVGWX-136" value="attributes" style="text;html=1;strokeColor=none;fillColor=none;align=center;verticalAlign=middle;spacingLeft=4;spacingRight=4;overflow=hidden;rotatable=0;points=[[0,0.5],[1,0.5]];portConstraint=eastwest;" vertex="1" parent="tfYl25-SF_PiAkNNVGWX-135">
          <mxGeometry y="55" width="140" height="20" as="geometry" />
        </mxCell>
        <mxCell id="tfYl25-SF_PiAkNNVGWX-137" value="-Id: String" style="text;html=1;strokeColor=none;fillColor=none;align=left;verticalAlign=middle;spacingLeft=4;spacingRight=4;overflow=hidden;rotatable=0;points=[[0,0.5],[1,0.5]];portConstraint=eastwest;" vertex="1" parent="tfYl25-SF_PiAkNNVGWX-135">
          <mxGeometry y="75" width="140" height="20" as="geometry" />
        </mxCell>
        <mxCell id="tfYl25-SF_PiAkNNVGWX-138" value="-author_fn: String" style="text;html=1;strokeColor=none;fillColor=none;align=left;verticalAlign=middle;spacingLeft=4;spacingRight=4;overflow=hidden;rotatable=0;points=[[0,0.5],[1,0.5]];portConstraint=eastwest;" vertex="1" parent="tfYl25-SF_PiAkNNVGWX-135">
          <mxGeometry y="95" width="140" height="20" as="geometry" />
        </mxCell>
        <mxCell id="tfYl25-SF_PiAkNNVGWX-139" value="-author_sn: String" style="text;html=1;strokeColor=none;fillColor=none;align=left;verticalAlign=middle;spacingLeft=4;spacingRight=4;overflow=hidden;rotatable=0;points=[[0,0.5],[1,0.5]];portConstraint=eastwest;" vertex="1" parent="tfYl25-SF_PiAkNNVGWX-135">
          <mxGeometry y="115" width="140" height="20" as="geometry" />
        </mxCell>
        <mxCell id="tfYl25-SF_PiAkNNVGWX-140" value="-price: Number" style="text;html=1;strokeColor=none;fillColor=none;align=left;verticalAlign=middle;spacingLeft=4;spacingRight=4;overflow=hidden;rotatable=0;points=[[0,0.5],[1,0.5]];portConstraint=eastwest;" vertex="1" parent="tfYl25-SF_PiAkNNVGWX-135">
          <mxGeometry y="135" width="140" height="20" as="geometry" />
        </mxCell>
        <mxCell id="tfYl25-SF_PiAkNNVGWX-141" value="-isOnSale: Boolean" style="text;html=1;strokeColor=none;fillColor=none;align=left;verticalAlign=middle;spacingLeft=4;spacingRight=4;overflow=hidden;rotatable=0;points=[[0,0.5],[1,0.5]];portConstraint=eastwest;" vertex="1" parent="tfYl25-SF_PiAkNNVGWX-135">
          <mxGeometry y="155" width="140" height="20" as="geometry" />
        </mxCell>
        <mxCell id="tfYl25-SF_PiAkNNVGWX-142" value="-pub_year: Number" style="text;html=1;strokeColor=none;fillColor=none;align=left;verticalAlign=middle;spacingLeft=4;spacingRight=4;overflow=hidden;rotatable=0;points=[[0,0.5],[1,0.5]];portConstraint=eastwest;" vertex="1" parent="tfYl25-SF_PiAkNNVGWX-135">
          <mxGeometry y="175" width="140" height="20" as="geometry" />
        </mxCell>
        <mxCell id="tfYl25-SF_PiAkNNVGWX-143" value="-description: String" style="text;html=1;strokeColor=none;fillColor=none;align=left;verticalAlign=middle;spacingLeft=4;spacingRight=4;overflow=hidden;rotatable=0;points=[[0,0.5],[1,0.5]];portConstraint=eastwest;" vertex="1" parent="tfYl25-SF_PiAkNNVGWX-135">
          <mxGeometry y="195" width="140" height="20" as="geometry" />
        </mxCell>
        <mxCell id="tfYl25-SF_PiAkNNVGWX-144" value="-catalog: Catalog" style="text;html=1;strokeColor=none;fillColor=none;align=left;verticalAlign=middle;spacingLeft=4;spacingRight=4;overflow=hidden;rotatable=0;points=[[0,0.5],[1,0.5]];portConstraint=eastwest;" vertex="1" parent="tfYl25-SF_PiAkNNVGWX-135">
          <mxGeometry y="215" width="140" height="20" as="geometry" />
        </mxCell>
        <mxCell id="tfYl25-SF_PiAkNNVGWX-145" value="" style="line;strokeWidth=1;fillColor=none;align=left;verticalAlign=middle;spacingTop=-1;spacingLeft=3;spacingRight=3;rotatable=0;labelPosition=right;points=[];portConstraint=eastwest;" vertex="1" parent="tfYl25-SF_PiAkNNVGWX-135">
          <mxGeometry y="235" width="140" height="8" as="geometry" />
        </mxCell>
        <mxCell id="tfYl25-SF_PiAkNNVGWX-146" value="operations" style="text;html=1;strokeColor=none;fillColor=none;align=center;verticalAlign=middle;spacingLeft=4;spacingRight=4;overflow=hidden;rotatable=0;points=[[0,0.5],[1,0.5]];portConstraint=eastwest;" vertex="1" parent="tfYl25-SF_PiAkNNVGWX-135">
          <mxGeometry y="243" width="140" height="20" as="geometry" />
        </mxCell>
        <mxCell id="tfYl25-SF_PiAkNNVGWX-147" value="operation1" style="text;html=1;strokeColor=none;fillColor=none;align=left;verticalAlign=middle;spacingLeft=4;spacingRight=4;overflow=hidden;rotatable=0;points=[[0,0.5],[1,0.5]];portConstraint=eastwest;" vertex="1" parent="tfYl25-SF_PiAkNNVGWX-135">
          <mxGeometry y="263" width="140" height="20" as="geometry" />
        </mxCell>
      </root>
    </mxGraphModel>
  </diagram>
</mxfile>
